<svg width="117" height="41" viewBox="0 0 117 41" fill="none" xmlns="http://www.w3.org/2000/svg">
<path fill-rule="evenodd" clip-rule="evenodd" d="M50.6182 18.1696V0.209229H59.6506C63.8527 0.209229 66.1294 2.84205 66.1294 5.98806C66.1294 9.12556 63.8193 11.79 59.6506 11.79H54.7307V18.1696H50.6182ZM61.9404 5.98806C61.9404 4.48498 60.7233 3.5717 59.0988 3.5717H54.7307V8.41537H59.0988C60.7233 8.41537 61.9404 7.48263 61.9404 5.98806Z" fill="#FF7226"/>
<path fill-rule="evenodd" clip-rule="evenodd" d="M81.132 18.1696L79.9872 15.1253H71.8968L70.7067 18.1696H66.1289L73.426 0.209229H78.458L85.722 18.1696H81.132ZM75.942 4.02813L72.995 11.7636H78.889L75.942 4.02813Z" fill="#FF7226"/>
<path fill-rule="evenodd" clip-rule="evenodd" d="M91.968 18.1696V10.822L84.9043 0.209229H89.3517L93.9256 7.41696L98.4173 0.209229H102.865L95.8698 10.822V18.1696H91.968Z" fill="#FF7226"/>
<path fill-rule="evenodd" clip-rule="evenodd" d="M50.6182 40.2116V22.2512H59.9023C63.2483 22.2512 64.9598 24.4318 64.9598 26.8252C64.9598 29.0946 63.5908 30.6002 61.9303 30.9517C63.8113 31.2375 65.313 33.0921 65.313 35.3627C65.313 38.0577 63.5422 40.2116 60.1832 40.2116H50.6182ZM61.1361 27.5038C61.1361 26.3752 60.342 25.547 59.0714 25.547H54.3683V29.4448H59.0714C60.342 29.4448 61.1361 28.6324 61.1361 27.5038ZM61.4775 34.8215C61.4775 33.6966 60.6834 32.7309 59.2054 32.7309H54.3683V36.9024H59.2054C60.6348 36.9024 61.4775 36.1143 61.4775 34.8215Z" fill="#3681C7"/>
<path fill-rule="evenodd" clip-rule="evenodd" d="M66.9443 30.8232C66.9443 25.3467 70.8927 21.4348 76.3139 21.4348C81.7485 21.4348 85.7211 25.3467 85.7211 30.8232C85.7211 36.2887 81.7485 40.2115 76.3139 40.2115C70.8927 40.2115 66.9443 36.2887 66.9443 30.8232ZM81.7861 30.8232C81.7861 27.4247 79.6246 24.8586 76.3139 24.8586C73.0032 24.8586 70.8672 27.4247 70.8672 30.8232C70.8672 34.1987 73.0032 36.7877 76.3139 36.7877C79.6246 36.7877 81.7861 34.1987 81.7861 30.8232Z" fill="#3681C7"/>
<path fill-rule="evenodd" clip-rule="evenodd" d="M99.1501 40.2116L94.696 33.6333L90.2151 40.2116H85.7207L92.1642 31.0015L86.1103 22.2512H90.6291L94.696 28.3929L98.7226 22.2512H103.279L97.2375 30.9736L103.681 40.2116H99.1501Z" fill="#3681C7"/>
<path fill-rule="evenodd" clip-rule="evenodd" d="M0 20.2105L5.81716 10.2105L9.07113 4.6144L11.6852 9.00874L9.69284 12.4311L5.16879 20.2105L9.69284 27.9911L14.2169 35.7694H14.2763L23.5025 20.1624L14.2763 4.65169H14.2169L11.604 0.260955L11.6343 0.209229H16.7558H23.2674H34.9017L40.7189 10.2105L46.5336 20.2105L40.7189 30.2118L34.9017 40.2118H23.2674H21.858L24.4914 35.7694H32.3167L36.8408 27.9911L41.3661 20.2105L36.8408 12.4311L32.3167 4.65169H23.2674H19.4002L28.6325 20.1636L19.3857 35.7694H19.3966L16.7522 40.2118H11.6343L5.81716 30.2118L0 20.2105Z" fill="#3681C7"/>
<mask id="mask0" mask-type="alpha" maskUnits="userSpaceOnUse" x="107" y="0" width="10" height="41">
<path d="M116.902 40.2118V0.209229H107.764V40.2118H116.902Z" fill="white"/>
</mask>
<g mask="url(#mask0)">
<path fill-rule="evenodd" clip-rule="evenodd" d="M108.022 6.16152L113.64 3.81952C113.778 3.76723 113.867 3.74291 113.93 3.74291C113.993 3.74291 114.081 3.78182 114.195 3.83411C114.761 4.09555 115.189 4.4871 115.429 4.80204C115.706 5.1413 115.882 5.52191 115.97 5.80889L116.903 5.52191C116.851 5.2325 116.663 4.6695 116.185 4.10893C115.529 3.32218 114.459 2.76039 112.368 1.93594L108.022 0.209229V1.42522L111.6 2.68378C112.041 2.84064 112.506 2.96954 112.873 3.08871V3.11302C112.506 3.2176 112.027 3.3769 111.624 3.51917L108.022 4.90662V6.16152ZM110.479 11.2237C109.71 11.1337 108.677 10.623 108.677 9.4593C108.677 8.16305 109.773 7.85054 110.479 7.86149V11.2237ZM111.272 6.79141C111.158 6.77803 110.981 6.75007 110.755 6.75007C109.635 6.75007 107.884 7.30091 107.884 9.3681C107.884 11.2103 109.332 12.3351 111.17 12.3351C113.011 12.3351 114.244 11.1714 114.244 9.2234C114.244 8.21412 114.044 7.52101 113.867 7.11608L113.073 7.31186C113.25 7.74597 113.388 8.24209 113.388 9.06654C113.388 10.2181 112.772 11.2103 111.272 11.2383V6.79141ZM114.118 19.1386V17.9883H110.453C110.264 17.9883 110.075 17.9603 109.937 17.908C109.319 17.7123 108.803 17.1249 108.803 16.3662C108.803 15.2791 109.622 14.9009 110.604 14.9009H114.118V13.7481H110.479C108.388 13.7481 107.884 15.1076 107.884 15.9843C107.884 17.0313 108.45 17.7658 109.029 18.0795V18.1038L108.022 18.1695V19.1909C108.526 19.152 109.042 19.1386 109.672 19.1386H114.118ZM108.716 23.6658C108.716 22.3026 110.025 21.7664 111.058 21.7664C112.431 21.7664 113.425 22.5921 113.425 23.6901C113.425 24.8161 112.418 25.6126 111.082 25.6126C109.924 25.6126 108.716 25.0253 108.716 23.6658ZM107.884 23.6378C107.884 25.3901 109.08 26.7763 111.121 26.7763C113.048 26.7763 114.257 25.4557 114.257 23.7412C114.257 22.2114 113.274 20.5893 111.02 20.5893C109.156 20.5893 107.884 21.8199 107.884 23.6378ZM114.118 37.2302V36.103H110.44C110.251 36.103 110.062 36.0787 109.899 36.013C109.344 35.8282 108.791 35.3065 108.791 34.5878C108.791 33.7099 109.497 33.2648 110.466 33.2648H114.118V32.14H110.351C110.15 32.14 109.95 32.1011 109.799 32.0488C109.257 31.8531 108.791 31.3424 108.791 30.6894C108.791 29.7591 109.497 29.3141 110.668 29.3141H114.118V28.1893H110.529C108.412 28.1893 107.884 29.4345 107.884 30.2686C107.884 30.8705 108.034 31.2901 108.312 31.6707C108.5 31.9297 108.766 32.179 109.106 32.3772V32.4015C108.388 32.6775 107.884 33.3317 107.884 34.1951C107.884 35.2396 108.425 35.8282 109.005 36.1808V36.2221L108.022 36.2756V37.2825C108.526 37.2436 109.042 37.2302 109.672 37.2302H114.118ZM109.351 39.4384C109.351 38.9569 109.012 38.6553 108.558 38.6553C108.093 38.6553 107.764 38.9679 107.764 39.4251C107.764 39.8835 108.093 40.2118 108.558 40.2118C109.012 40.2118 109.351 39.8969 109.351 39.4384Z" fill="#FF7226"/>
</g>
</svg>
